<svg width="555" height="555" viewBox="0 0 555 555" fill="none" xmlns="http://www.w3.org/2000/svg">
<mask id="mask0_30_2" style="mask-type:alpha" maskUnits="userSpaceOnUse" x="0" y="0" width="555" height="555">
<rect width="554.052" height="554.052" fill="#D9D9D9"/>
</mask>
<g mask="url(#mask0_30_2)">
<path d="M69.2565 334.74C66.1784 334.74 63.4851 333.585 61.1766 331.277C58.868 328.968 57.7138 326.275 57.7138 323.197C57.7138 320.119 58.868 317.426 61.1766 315.117C63.4851 312.808 66.1784 311.654 69.2565 311.654C72.3346 311.654 75.0279 312.808 77.3364 315.117C79.645 317.426 80.7993 320.119 80.7993 323.197C80.7993 326.275 79.645 328.968 77.3364 331.277C75.0279 333.585 72.3346 334.74 69.2565 334.74ZM69.2565 242.398C66.1784 242.398 63.4851 241.243 61.1766 238.935C58.868 236.626 57.7138 233.933 57.7138 230.855C57.7138 227.777 58.868 225.084 61.1766 222.775C63.4851 220.466 66.1784 219.312 69.2565 219.312C72.3346 219.312 75.0279 220.466 77.3364 222.775C79.645 225.084 80.7993 227.777 80.7993 230.855C80.7993 233.933 79.645 236.626 77.3364 238.935C75.0279 241.243 72.3346 242.398 69.2565 242.398ZM138.513 438.624C131.972 438.624 126.489 436.412 122.065 431.987C117.64 427.563 115.427 422.08 115.427 415.539C115.427 408.998 117.64 403.515 122.065 399.091C126.489 394.666 131.972 392.453 138.513 392.453C145.054 392.453 150.537 394.666 154.961 399.091C159.386 403.515 161.598 408.998 161.598 415.539C161.598 422.08 159.386 427.563 154.961 431.987C150.537 436.412 145.054 438.624 138.513 438.624ZM138.513 346.282C131.972 346.282 126.489 344.07 122.065 339.645C117.64 335.221 115.427 329.738 115.427 323.197C115.427 316.656 117.64 311.173 122.065 306.749C126.489 302.324 131.972 300.111 138.513 300.111C145.054 300.111 150.537 302.324 154.961 306.749C159.386 311.173 161.598 316.656 161.598 323.197C161.598 329.738 159.386 335.221 154.961 339.645C150.537 344.07 145.054 346.282 138.513 346.282ZM138.513 253.94C131.972 253.94 126.489 251.728 122.065 247.303C117.64 242.879 115.427 237.396 115.427 230.855C115.427 224.314 117.64 218.831 122.065 214.407C126.489 209.982 131.972 207.769 138.513 207.769C145.054 207.769 150.537 209.982 154.961 214.407C159.386 218.831 161.598 224.314 161.598 230.855C161.598 237.396 159.386 242.879 154.961 247.303C150.537 251.728 145.054 253.94 138.513 253.94ZM138.513 161.598C131.972 161.598 126.489 159.386 122.065 154.961C117.64 150.537 115.427 145.054 115.427 138.513C115.427 131.972 117.64 126.489 122.065 122.065C126.489 117.64 131.972 115.427 138.513 115.427C145.054 115.427 150.537 117.64 154.961 122.065C159.386 126.489 161.598 131.972 161.598 138.513C161.598 145.054 159.386 150.537 154.961 154.961C150.537 159.386 145.054 161.598 138.513 161.598ZM230.855 357.825C221.236 357.825 213.06 354.459 206.327 347.725C199.593 340.992 196.227 332.816 196.227 323.197C196.227 313.578 199.593 305.402 206.327 298.669C213.06 291.935 221.236 288.569 230.855 288.569C240.474 288.569 248.65 291.935 255.383 298.669C262.117 305.402 265.483 313.578 265.483 323.197C265.483 332.816 262.117 340.992 255.383 347.725C248.65 354.459 240.474 357.825 230.855 357.825ZM230.855 265.483C221.236 265.483 213.06 262.117 206.327 255.383C199.593 248.65 196.227 240.474 196.227 230.855C196.227 221.236 199.593 213.06 206.327 206.327C213.06 199.593 221.236 196.227 230.855 196.227C240.474 196.227 248.65 199.593 255.383 206.327C262.117 213.06 265.483 221.236 265.483 230.855C265.483 240.474 262.117 248.65 255.383 255.383C248.65 262.117 240.474 265.483 230.855 265.483ZM230.855 438.624C224.314 438.624 218.831 436.412 214.407 431.987C209.982 427.563 207.769 422.08 207.769 415.539C207.769 408.998 209.982 403.515 214.407 399.091C218.831 394.666 224.314 392.453 230.855 392.453C237.396 392.453 242.879 394.666 247.303 399.091C251.728 403.515 253.94 408.998 253.94 415.539C253.94 422.08 251.728 427.563 247.303 431.987C242.879 436.412 237.396 438.624 230.855 438.624ZM230.855 161.598C224.314 161.598 218.831 159.386 214.407 154.961C209.982 150.537 207.769 145.054 207.769 138.513C207.769 131.972 209.982 126.489 214.407 122.065C218.831 117.64 224.314 115.427 230.855 115.427C237.396 115.427 242.879 117.64 247.303 122.065C251.728 126.489 253.94 131.972 253.94 138.513C253.94 145.054 251.728 150.537 247.303 154.961C242.879 159.386 237.396 161.598 230.855 161.598ZM230.855 496.338C227.777 496.338 225.084 495.184 222.775 492.875C220.467 490.567 219.312 487.873 219.312 484.795C219.312 481.717 220.467 479.024 222.775 476.715C225.084 474.407 227.777 473.253 230.855 473.253C233.933 473.253 236.626 474.407 238.935 476.715C241.243 479.024 242.398 481.717 242.398 484.795C242.398 487.873 241.243 490.567 238.935 492.875C236.626 495.184 233.933 496.338 230.855 496.338ZM230.855 80.7992C227.777 80.7992 225.084 79.645 222.775 77.3364C220.467 75.0279 219.312 72.3346 219.312 69.2565C219.312 66.1784 220.467 63.4851 222.775 61.1766C225.084 58.868 227.777 57.7137 230.855 57.7137C233.933 57.7137 236.626 58.868 238.935 61.1766C241.243 63.4851 242.398 66.1784 242.398 69.2565C242.398 72.3346 241.243 75.0279 238.935 77.3364C236.626 79.645 233.933 80.7992 230.855 80.7992ZM323.197 357.825C313.578 357.825 305.402 354.459 298.669 347.725C291.935 340.992 288.569 332.816 288.569 323.197C288.569 313.578 291.935 305.402 298.669 298.669C305.402 291.935 313.578 288.569 323.197 288.569C332.816 288.569 340.992 291.935 347.725 298.669C354.459 305.402 357.825 313.578 357.825 323.197C357.825 332.816 354.459 340.992 347.725 347.725C340.992 354.459 332.816 357.825 323.197 357.825ZM323.197 265.483C313.578 265.483 305.402 262.117 298.669 255.383C291.935 248.65 288.569 240.474 288.569 230.855C288.569 221.236 291.935 213.06 298.669 206.327C305.402 199.593 313.578 196.227 323.197 196.227C332.816 196.227 340.992 199.593 347.725 206.327C354.459 213.06 357.825 221.236 357.825 230.855C357.825 240.474 354.459 248.65 347.725 255.383C340.992 262.117 332.816 265.483 323.197 265.483ZM323.197 438.624C316.656 438.624 311.173 436.412 306.749 431.987C302.324 427.563 300.111 422.08 300.111 415.539C300.111 408.998 302.324 403.515 306.749 399.091C311.173 394.666 316.656 392.453 323.197 392.453C329.738 392.453 335.221 394.666 339.645 399.091C344.07 403.515 346.282 408.998 346.282 415.539C346.282 422.08 344.07 427.563 339.645 431.987C335.221 436.412 329.738 438.624 323.197 438.624ZM323.197 161.598C316.656 161.598 311.173 159.386 306.749 154.961C302.324 150.537 300.111 145.054 300.111 138.513C300.111 131.972 302.324 126.489 306.749 122.065C311.173 117.64 316.656 115.427 323.197 115.427C329.738 115.427 335.221 117.64 339.645 122.065C344.07 126.489 346.282 131.972 346.282 138.513C346.282 145.054 344.07 150.537 339.645 154.961C335.221 159.386 329.738 161.598 323.197 161.598ZM323.197 496.338C320.119 496.338 317.426 495.184 315.117 492.875C312.808 490.567 311.654 487.873 311.654 484.795C311.654 481.717 312.808 479.024 315.117 476.715C317.426 474.407 320.119 473.253 323.197 473.253C326.275 473.253 328.968 474.407 331.277 476.715C333.585 479.024 334.74 481.717 334.74 484.795C334.74 487.873 333.585 490.567 331.277 492.875C328.968 495.184 326.275 496.338 323.197 496.338ZM323.197 80.7992C320.119 80.7992 317.426 79.645 315.117 77.3364C312.808 75.0279 311.654 72.3346 311.654 69.2565C311.654 66.1784 312.808 63.4851 315.117 61.1766C317.426 58.868 320.119 57.7137 323.197 57.7137C326.275 57.7137 328.968 58.868 331.277 61.1766C333.585 63.4851 334.74 66.1784 334.74 69.2565C334.74 72.3346 333.585 75.0279 331.277 77.3364C328.968 79.645 326.275 80.7992 323.197 80.7992ZM415.539 438.624C408.998 438.624 403.515 436.412 399.091 431.987C394.666 427.563 392.453 422.08 392.453 415.539C392.453 408.998 394.666 403.515 399.091 399.091C403.515 394.666 408.998 392.453 415.539 392.453C422.08 392.453 427.563 394.666 431.987 399.091C436.412 403.515 438.624 408.998 438.624 415.539C438.624 422.08 436.412 427.563 431.987 431.987C427.563 436.412 422.08 438.624 415.539 438.624ZM415.539 346.282C408.998 346.282 403.515 344.07 399.091 339.645C394.666 335.221 392.453 329.738 392.453 323.197C392.453 316.656 394.666 311.173 399.091 306.749C403.515 302.324 408.998 300.111 415.539 300.111C422.08 300.111 427.563 302.324 431.987 306.749C436.412 311.173 438.624 316.656 438.624 323.197C438.624 329.738 436.412 335.221 431.987 339.645C427.563 344.07 422.08 346.282 415.539 346.282ZM415.539 253.94C408.998 253.94 403.515 251.728 399.091 247.303C394.666 242.879 392.453 237.396 392.453 230.855C392.453 224.314 394.666 218.831 399.091 214.407C403.515 209.982 408.998 207.769 415.539 207.769C422.08 207.769 427.563 209.982 431.987 214.407C436.412 218.831 438.624 224.314 438.624 230.855C438.624 237.396 436.412 242.879 431.987 247.303C427.563 251.728 422.08 253.94 415.539 253.94ZM415.539 161.598C408.998 161.598 403.515 159.386 399.091 154.961C394.666 150.537 392.453 145.054 392.453 138.513C392.453 131.972 394.666 126.489 399.091 122.065C403.515 117.64 408.998 115.427 415.539 115.427C422.08 115.427 427.563 117.64 431.987 122.065C436.412 126.489 438.624 131.972 438.624 138.513C438.624 145.054 436.412 150.537 431.987 154.961C427.563 159.386 422.08 161.598 415.539 161.598ZM484.795 334.74C481.717 334.74 479.024 333.585 476.715 331.277C474.407 328.968 473.253 326.275 473.253 323.197C473.253 320.119 474.407 317.426 476.715 315.117C479.024 312.808 481.717 311.654 484.795 311.654C487.873 311.654 490.567 312.808 492.875 315.117C495.184 317.426 496.338 320.119 496.338 323.197C496.338 326.275 495.184 328.968 492.875 331.277C490.567 333.585 487.873 334.74 484.795 334.74ZM484.795 242.398C481.717 242.398 479.024 241.243 476.715 238.935C474.407 236.626 473.253 233.933 473.253 230.855C473.253 227.777 474.407 225.084 476.715 222.775C479.024 220.466 481.717 219.312 484.795 219.312C487.873 219.312 490.567 220.466 492.875 222.775C495.184 225.084 496.338 227.777 496.338 230.855C496.338 233.933 495.184 236.626 492.875 238.935C490.567 241.243 487.873 242.398 484.795 242.398Z" fill="black" fill-opacity="0.27"/>
</g>
<mask id="mask1_30_2" style="mask-type:alpha" maskUnits="userSpaceOnUse" x="155" y="155" width="251" height="251">
<rect x="155" y="155" width="250.401" height="250.401" fill="#D9D9D9"/>
</mask>
<g mask="url(#mask1_30_2)">
<path d="M190.474 342.801L175.867 328.194L231.164 272.897C237.25 266.811 244.64 263.768 253.335 263.768C262.029 263.768 269.419 266.811 275.506 272.897L287.504 284.896C289.591 286.982 292.069 288.026 294.938 288.026C297.807 288.026 300.285 286.982 302.372 284.896L348.8 238.467H321.934V217.6H384.534V280.201H363.668V253.335L316.978 299.763C310.892 305.849 303.502 308.892 294.807 308.892C286.113 308.892 278.723 305.849 272.636 299.763L260.377 287.504C258.464 285.591 256.03 284.635 253.074 284.635C250.118 284.635 247.683 285.591 245.77 287.504L190.474 342.801Z" fill="white"/>
</g>
</svg>
